M48
;DRILL file {KiCad (5.0.1)-4} date 17/12/2020 18:24:50
;FORMAT={-:-/ absolute / metric / decimal}
FMAT,2
METRIC,TZ
T1C0.800
T2C0.900
T3C1.016
T4C1.100
T5C1.200
T6C1.520
%
G90
G05
M71
T1
X24.14Y4.94
X12.71Y27.8
X3.82Y54.47
X19.06Y54.47
X68.59Y51.93
X68.59Y39.23
X58.65Y53.2
X58.65Y37.96
X22.87Y27.8
X22.87Y15.1
X11.44Y4.94
X2.55Y32.88
X15.25Y32.88
X53.35Y15.1
X53.35Y2.4
X11.44Y11.29
X24.14Y11.29
X5.09Y27.8
X5.09Y25.26
X12.71Y25.26
X59.7Y27.165
X59.7Y19.545
X62.24Y27.165
X62.24Y19.545
X67.32Y30.34
X67.32Y17.64
X17.79Y30.34
X17.79Y17.64
T2
X21.6Y32.88
X24.14Y32.88
X63.51Y51.93
X63.51Y49.39
T3
X27.57Y26.53
X27.57Y23.99
X27.57Y21.45
X27.57Y18.91
X27.57Y16.37
X27.57Y13.83
X27.57Y11.29
X27.57Y8.75
X50.43Y26.53
X50.43Y23.99
X50.43Y21.45
X50.43Y18.91
X50.43Y16.37
X50.43Y13.83
X50.43Y11.29
X50.43Y8.75
T4
X57.16Y9.535
X57.16Y3.035
X61.66Y9.535
X61.66Y3.035
T5
X72.4Y30.34
X72.4Y17.64
X6.36Y20.815
X6.36Y17.315
X6.36Y13.815
X6.36Y10.315
X6.36Y6.815
X6.36Y3.315
X69.86Y12.9
X69.86Y9.4
X69.86Y5.9
X69.86Y2.4
X23.95Y49.43
X23.95Y44.43
X53.35Y54.63
X53.35Y39.23
T6
X5.09Y49.39
X5.09Y44.31
T0
M30
